<svg width="201" height="151" viewBox="0 0 201 151" fill="none" xmlns="http://www.w3.org/2000/svg">
<path d="M169.997 13.1C156.845 7.12289 142.956 2.88647 128.687 0.5C126.735 3.93201 124.982 7.47105 123.435 11.1C108.265 8.90019 92.8523 8.90019 77.6822 11.1C76.2682 7.8 74.1472 3.6 72.4302 0.5C58.0857 2.84037 44.1237 7.07828 30.9191 13.1C7.65476 45.7517 -2.82692 85.6639 1.42698 125.4C16.712 136.524 33.7858 145.01 51.9271 150.5C56.0456 145.066 59.6625 139.276 62.7342 133.2C56.8356 131.029 51.1549 128.317 45.7661 125.1L49.9071 121.9C65.6962 129.289 82.9432 133.122 100.407 133.122C117.871 133.122 135.118 129.289 150.907 121.9C152.321 123 153.634 124.1 155.149 125.1C149.68 128.299 143.934 131.01 137.979 133.2C141.15 139.285 144.869 145.075 149.089 150.5C167.231 145.01 184.305 136.524 199.59 125.4C203.805 85.6522 193.288 45.7421 169.997 13.1ZM67.3802 103.1C64.8719 102.96 62.4163 102.331 60.1542 101.249C57.892 100.167 55.8678 98.6534 54.1976 96.7953C52.5273 94.9373 51.244 92.7711 50.4211 90.4209C49.5982 88.0708 49.2519 85.5829 49.4021 83.1C49.2382 80.6142 49.575 78.1208 50.3928 75.765C51.2106 73.4091 52.4931 71.2376 54.1658 69.3767C55.8386 67.5158 57.8682 66.0027 60.1367 64.9251C62.4052 63.8476 64.8674 63.2272 67.3802 63.1C69.8975 63.2139 72.3664 63.8253 74.6414 64.8984C76.9164 65.9715 78.9515 67.4845 80.6268 69.3483C82.3022 71.212 83.5839 73.3889 84.3965 75.7506C85.209 78.1124 85.536 80.6112 85.3582 83.1C85.5517 88.0474 83.7767 92.8724 80.4147 96.5376C77.0528 100.203 72.3726 102.416 67.3802 102.7V103.1ZM133.737 103.1C128.681 102.791 123.954 100.515 120.586 96.7679C117.218 93.0212 115.483 88.1081 115.759 83.1C115.609 80.6171 115.955 78.1292 116.778 75.7791C117.601 73.4289 118.885 71.2627 120.555 69.4047C122.225 67.5466 124.249 66.0332 126.511 64.9514C128.774 63.8695 131.229 63.2403 133.737 63.1C136.255 63.2139 138.724 63.8253 140.999 64.8984C143.274 65.9715 145.309 67.4845 146.984 69.3483C148.659 71.212 149.941 73.3889 150.754 75.7506C151.566 78.1124 151.893 80.6112 151.715 83.1C151.935 88.0542 150.169 92.8938 146.802 96.5648C143.435 100.236 138.739 102.441 133.737 102.7V103.1Z" fill="white"/>
</svg>
